<?xml version="1.0" encoding="iso-8859-1"?>
<!-- Generator: Adobe Illustrator 16.0.0, SVG Export Plug-In . SVG Version: 6.00 Build 0)  -->
<!DOCTYPE svg PUBLIC "-//W3C//DTD SVG 1.1//EN" "http://www.w3.org/Graphics/SVG/1.1/DTD/svg11.dtd">
<svg xmlns="http://www.w3.org/2000/svg" xmlns:xlink="http://www.w3.org/1999/xlink" version="1.1" id="Capa_1" x="0px" y="0px" width="512px" height="512px" viewBox="0 0 94 94" style="enable-background:new 0 0 94 94;" xml:space="preserve">
<g>
	<path d="M89,0H5C2.238,0,0,2.239,0,5v84c0,2.761,2.238,5,5,5h84c2.762,0,5-2.239,5-5V5C94,2.239,91.762,0,89,0z M19.24,59.729   c-0.534-4.26-0.211-10.265,0.319-12.615c0.587-2.604,2.032-3.252,4.501-2.262c4.879,1.954,9.743,3.94,14.605,5.931   c1.536,0.63,2.212,1.72,2.144,3.304c-0.064,1.502-0.809,2.452-2.403,2.96c-5.123,1.632-10.243,3.269-15.379,4.856   C20.984,62.534,19.697,61.839,19.24,59.729z M46.87,80.956c-0.021,2.06-1.079,3.155-3.12,2.955   c-4.553-0.45-8.756-2.002-12.525-4.587c-1.708-1.172-1.846-2.678-0.525-4.27c3.494-4.205,7.023-8.383,10.563-12.551   c0.991-1.167,2.318-1.427,3.744-0.859c1.335,0.529,1.95,1.453,1.958,3.027c0.014,2.714,0.004,5.428,0.004,8.143   c-0.03,0-0.061,0-0.091,0C46.878,75.527,46.901,78.242,46.87,80.956z M46.864,43.158c-0.626,2.265-2.878,2.928-4.663,1.383   c-0.721-0.625-1.335-1.416-1.85-2.225c-4.934-7.75-9.838-15.518-14.741-23.285c-1.417-2.244-1.135-3.596,1.242-4.802   c4.702-2.388,9.704-3.83,14.979-4.146c2.516-0.151,3.399,0.693,3.573,3.183c0.618,8.88,1.204,17.763,1.825,26.967   C47.141,41.008,47.148,42.124,46.864,43.158z M52.876,46.45c3.216-4.36,6.411-8.737,9.651-13.08c1.387-1.86,2.896-2.04,4.611-0.446   c3.188,2.96,5.566,6.512,7.09,10.587c0.822,2.205,0.095,3.493-2.179,4.078c-5.166,1.329-10.348,2.603-15.524,3.89   c-0.312,0.078-0.637,0.096-0.896,0.133c-1.407-0.041-2.368-0.709-2.985-1.856C52.037,48.625,52.098,47.507,52.876,46.45z    M74.279,68.119c-1.758,3.468-4.141,6.459-7.061,9.018c-0.449,0.396-0.973,0.736-1.514,0.994c-1.271,0.607-2.452,0.355-3.193-0.82   c-3.068-4.852-6.105-9.725-9.103-14.623c-0.771-1.261-0.38-2.514,0.518-3.588c0.858-1.029,1.976-1.416,3.265-0.988   c5.297,1.75,10.582,3.527,15.871,5.297c1.207,0.402,1.896,1.193,1.971,2.558C74.786,66.688,74.618,67.445,74.279,68.119z" fill="#FFFFFF"/>
</g>
<g>
</g>
<g>
</g>
<g>
</g>
<g>
</g>
<g>
</g>
<g>
</g>
<g>
</g>
<g>
</g>
<g>
</g>
<g>
</g>
<g>
</g>
<g>
</g>
<g>
</g>
<g>
</g>
<g>
</g>
</svg>
